<?xml version="1.0" encoding="utf-8"?>
<!-- Svg Vector Icons : http://www.onlinewebfonts.com/icon -->
<!DOCTYPE svg PUBLIC "-//W3C//DTD SVG 1.1//EN" "http://www.w3.org/Graphics/SVG/1.1/DTD/svg11.dtd">
<svg version="1.1" xmlns="http://www.w3.org/2000/svg" xmlns:xlink="http://www.w3.org/1999/xlink" x="0px" y="0px"
    viewBox="0 0 256 256" enable-background="new 0 0 256 256" xml:space="preserve">
    <metadata> Svg Vector Icons : http://www.onlinewebfonts.com/icon </metadata>
    <g>
        <g>
            <g>
                <path fill="#000000"
                    d="M37.8,18c-0.5,0.3-1.2,0.9-1.5,1.2c-0.8,1.1-0.8,216.4,0,217.5c1.2,1.7,2.4,1.8,13.7,1.8h11.1l1.1-1.2c0.9-0.8,1.2-1.6,1.2-3.2c0-2.7,0-205.4,0-210.5c0-3.6-0.1-4.1-1.2-5.1l-1.1-1.2H49.9C42.3,17.5,38.4,17.6,37.8,18z" />
                <path fill="#000000"
                    d="M80.6,18.6l-1.3,1.1V128v108.3l1.3,1.1c1.3,1.1,1.3,1.1,12.6,1.1h11.4l1.3-1.3l1.3-1.3V128V20.1l-1.3-1.3l-1.3-1.3H93.2C81.9,17.4,81.9,17.4,80.6,18.6z" />
                <path fill="#000000"
                    d="M124.1,18.6l-1.2,1.1V128v108.3l1.2,1.1l1.1,1.2h11.6h11.6l1.1-1.2l1.2-1.1V128V19.7l-1.2-1.1l-1.1-1.2h-11.6h-11.6L124.1,18.6z" />
                <path fill="#000000"
                    d="M167.7,18.8l-1.3,1.3V128v107.9l1.3,1.3l1.3,1.3h11.4h11.4l1.3-1.3l1.3-1.3V128V20.1l-1.3-1.3l-1.3-1.3h-11.4H169L167.7,18.8z" />
                <path fill="#000000"
                    d="M17.6,29.7c-9,6.6-10.2,20.1-2.4,28.4c1.2,1.3,2.8,2.6,3.5,3l1.3,0.7V44.9c0-9.3,0-16.8-0.1-16.8C19.8,28.1,18.8,28.8,17.6,29.7z" />
                <path fill="#000000"
                    d="M226.6,37.9c-4.6,1.7-8,5.5-10.2,11.6c-0.3,1-0.6,20.1-0.7,64.2c-0.1,34.5-0.4,63.1-0.6,63.6c-0.3,0.6-0.9,0.8-2.6,0.8h-2.3v7.9v7.9l4.1-0.2c6.6-0.3,11.4-3.3,14.3-8.9c2.5-4.9,2.4-2.3,2.5-67.9c0-33.5,0.2-61.6,0.4-62.3l0.3-1.4l4.4-0.3c4.8-0.3,6.7-1,8.3-3c1.3-1.7,2-4.4,1.6-6.5c-0.4-1.9-2.4-4.5-4.4-5.5C239.8,37.1,229.1,37.1,226.6,37.9z" />
            </g>
        </g>
    </g>
</svg>