<?xml version="1.0" encoding="iso-8859-1"?>
<!-- Uploaded to: SVG Repo, www.svgrepo.com, Generator: SVG Repo Mixer Tools -->
<svg fill="#000000" height="800px" width="800px" version="1.1" id="Layer_1" xmlns="http://www.w3.org/2000/svg" xmlns:xlink="http://www.w3.org/1999/xlink" 
	 viewBox="0 0 512 512" xml:space="preserve">
<g>
	<g>
		<path d="M485.924,134.508c14.381,0,26.076-11.669,26.076-26.017v-17.39c0-14.348-11.695-26.017-26.076-26.017H468.61v-8.737
			c0-23.89-19.466-43.331-43.39-43.331s-43.39,19.441-43.39,43.331v8.737h-26.034v-8.737c0-23.89-19.466-43.331-43.39-43.331
			c-23.924,0-43.39,19.441-43.39,43.331v8.737h-26.034v-8.737c0-23.89-19.466-43.331-43.39-43.331
			c-23.924,0-43.39,19.441-43.39,43.331v8.737h-26.034v-8.737c0-23.89-19.466-43.331-43.39-43.331S43.39,32.458,43.39,56.348v8.737
			H17.356V39.051H0v34.712v52.068v34.712h17.356v-26.034H43.39v269.017H8.678c-4.797,0-8.678,3.881-8.678,8.678v34.712
			c0,4.797,3.881,8.678,8.678,8.678c4.797,0,8.678-3.881,8.678-8.678v-26.034H43.39v34.78c0,23.89,19.466,43.322,43.39,43.322
			s43.39-19.432,43.39-43.322v-0.068h26.034v0.068c0,23.89,19.466,43.322,43.39,43.322c23.924,0,43.39-19.432,43.39-43.322v-0.068
			h26.034v0.068c0,23.89,19.466,43.322,43.39,43.322c23.924,0,43.39-19.432,43.39-43.322v-0.068h26.034v0.068
			c0,23.89,19.466,43.322,43.39,43.322s43.39-19.432,43.39-43.322v-0.068h17.314c14.381,0,26.076-11.669,26.076-26.017v-17.39
			c0-14.347-11.695-26.017-26.076-26.017H468.61V134.508H485.924z M468.61,82.441h17.314c4.805,0,8.72,3.881,8.72,8.661v17.39
			c0,4.78-3.915,8.661-8.72,8.661H468.61V82.441z M43.39,117.153H17.356V82.441H43.39V117.153z M112.814,73.763v52.068v269.017
			v52.068v8.746c0,14.313-11.678,25.966-26.034,25.966s-26.034-11.653-26.034-25.966V125.831V73.763V56.348
			c0-14.322,11.678-25.975,26.034-25.975s26.034,11.653,26.034,25.975V73.763z M156.203,438.237h-26.034v-34.712h26.034V438.237z
			 M156.203,386.169h-26.034V134.508h26.034V386.169z M156.203,117.153h-26.034V82.441h26.034V117.153z M225.627,73.763v52.068
			v269.017v52.068v8.746c0,14.313-11.678,25.966-26.034,25.966s-26.034-11.653-26.034-25.966v-8.746v-52.068V125.831V73.763V56.348
			c0-14.322,11.678-25.975,26.034-25.975s26.034,11.653,26.034,25.975V73.763z M269.017,438.237h-26.034v-34.712h26.034V438.237z
			 M269.017,386.169h-26.034V134.508h26.034V386.169z M269.017,117.153h-26.034V82.441h26.034V117.153z M338.441,73.763v52.068
			v269.017v52.068v8.746c0,14.313-11.678,25.966-26.034,25.966s-26.034-11.653-26.034-25.966v-8.746v-52.068V125.831V73.763V56.348
			c0-14.322,11.678-25.975,26.034-25.975s26.034,11.653,26.034,25.975V73.763z M381.831,438.237h-26.034v-34.712h26.034V438.237z
			 M381.831,386.169h-26.034V134.508h26.034V386.169z M381.831,117.153h-26.034V82.441h26.034V117.153z M451.254,73.763v52.068
			v269.017v52.068v8.746c0,14.313-11.678,25.966-26.034,25.966s-26.034-11.653-26.034-25.966v-8.746v-52.068V125.831V73.763V56.348
			c0-14.322,11.678-25.975,26.034-25.975s26.034,11.653,26.034,25.975V73.763z M485.924,403.525c4.805,0,8.72,3.881,8.72,8.661
			v17.39c0,4.78-3.915,8.661-8.72,8.661H468.61v-34.712H485.924z"/>
	</g>
</g>
</svg>