<?xml version="1.0" encoding="utf-8"?>
<!-- Svg Vector Icons : http://www.onlinewebfonts.com/icon -->
<!DOCTYPE svg PUBLIC "-//W3C//DTD SVG 1.1//EN" "http://www.w3.org/Graphics/SVG/1.1/DTD/svg11.dtd">
<svg version="1.1" xmlns="http://www.w3.org/2000/svg" xmlns:xlink="http://www.w3.org/1999/xlink" x="0px" y="0px" viewBox="0 0 256 256" enable-background="new 0 0 256 256" xml:space="preserve">
<metadata> Svg Vector Icons : http://www.onlinewebfonts.com/icon </metadata>
<g><g><path fill="#000000" d="M116.4,136.2c0.2,0.2,0.4,0.4,0.7,0.7c2.6,3.2,6.5,5.3,11,5.3c7.8,0,14.2-6.3,14.2-14.2c0-4.2-1.8-7.9-4.7-10.5c-0.4-0.4-0.7-0.8-1.3-1.3L79,72.8c-1.7-1.3-4.1-1.3-5.8,0c-2.1,1.6-2.5,4.6-0.9,6.7L116.4,136.2L116.4,136.2z"/><path fill="#000000" d="M128,10c-1.5,0-3.1,0.2-4.6,0.2v4.9h-0.1v51.5h9.4V19.7c57.7,2.5,103.8,50.1,103.8,108.3c0,59.9-48.7,108.6-108.6,108.6S19.4,187.9,19.4,128c0-29.9,12.2-57.1,31.8-76.7l-6.7-6.7C23.2,65.9,10,95.4,10,128c0,65.2,52.8,118,118,118c65.2,0,118-52.8,118-118C246,62.8,193.2,10,128,10L128,10z"/></g></g>
</svg>