<svg version="1.1" id="Layer_1" xmlns="http://www.w3.org/2000/svg" xmlns:xlink="http://www.w3.org/1999/xlink" x="0px" y="0px"
	 width="100%" viewBox="0 0 1000 363" enable-background="new 0 0 1000 363" xml:space="preserve">
<path fill="#000000" opacity="1.000000" stroke="none" 
	d="
M712.000000,364.000000 
	C474.666748,364.000000 237.833496,364.000000 1.000191,364.000000 
	C1.000127,243.000122 1.000127,122.000259 1.000064,1.000288 
	C334.333099,1.000192 667.666199,1.000192 1000.999451,1.000096 
	C1000.999634,121.999702 1000.999634,242.999405 1000.999817,363.999573 
	C904.833313,364.000000 808.666687,364.000000 712.000000,364.000000 
M864.470947,205.631851 
	C863.780212,207.146591 863.141296,208.687485 862.390991,210.172119 
	C852.965881,228.821457 829.878540,231.635544 816.384766,215.772202 
	C811.050415,209.501175 809.051453,202.042450 809.028259,193.996582 
	C808.967712,173.003571 809.106750,152.009125 808.877808,131.018387 
	C808.841492,127.688812 808.035706,123.928360 806.321960,121.145195 
	C802.405518,114.784470 793.651733,112.365685 785.848450,114.664230 
	C778.818237,116.735054 774.095886,122.939888 774.059204,130.824081 
	C773.954529,153.316269 773.539062,175.821594 774.129150,198.298584 
	C774.814087,224.384750 787.835022,243.087143 811.247986,254.092316 
	C826.839233,261.420929 843.333069,260.300690 859.684082,256.556702 
	C865.153809,255.304260 866.030334,255.546692 865.925354,261.109436 
	C865.825134,266.418945 865.746094,271.818390 864.755249,277.005951 
	C860.595337,298.786438 840.330322,307.623718 823.385681,298.305054 
	C816.814087,294.691010 812.249573,289.588348 808.236572,283.527832 
	C803.745056,276.744659 792.279358,274.721863 784.350891,278.974396 
	C777.581116,282.605530 773.688721,292.605316 777.756165,299.739410 
	C781.884827,306.980957 786.894714,314.187683 793.040710,319.718323 
	C807.775696,332.977936 826.072998,337.218964 845.223450,334.653839 
	C866.221985,331.841248 882.904053,321.040802 893.370850,302.098328 
	C899.669312,290.699646 900.639343,277.930420 900.899841,265.271210 
	C901.273254,247.118088 901.003723,228.951645 900.998718,210.790878 
	C900.991394,183.966370 901.088257,157.141083 900.905945,130.317719 
	C900.835205,119.912575 893.824097,113.859016 882.888733,114.029655 
	C872.707336,114.188538 866.113281,120.509338 866.040955,130.475906 
	C865.935791,144.970459 866.165222,159.468689 865.945801,173.960709 
	C865.789917,184.260101 865.129211,194.551819 864.470947,205.631851 
M209.010925,237.467453 
	C213.510086,241.410782 217.711929,245.770462 222.556580,249.229980 
	C254.399750,271.968994 309.658813,266.606842 332.887085,221.909882 
	C336.403473,215.143585 338.889801,207.914551 335.898926,200.332947 
	C333.001740,192.988815 326.825409,190.918030 319.314392,190.922501 
	C311.733612,190.927017 307.023468,194.291885 303.490051,200.877045 
	C300.157806,207.087265 296.590393,213.548035 291.689728,218.467224 
	C278.561920,231.644623 256.812988,232.958740 242.597839,222.343185 
	C239.054642,219.697235 239.150604,218.378860 243.164963,216.533722 
	C251.634933,212.640640 260.131500,208.805298 268.623016,204.959259 
	C287.730408,196.305054 306.921448,187.829803 325.915924,178.934677 
	C334.944580,174.706543 338.111359,166.050934 333.937592,157.187027 
	C321.304077,130.356934 299.692596,116.071854 270.397888,114.146606 
	C244.286850,112.430595 222.547012,121.738052 205.975357,142.494492 
	C194.856186,156.421539 190.052673,172.529312 190.355072,189.897598 
	C190.662308,207.542282 196.848679,223.433197 209.010925,237.467453 
M511.798492,251.946136 
	C512.195557,249.328674 512.933105,246.711914 512.938354,244.093658 
	C513.014038,206.771240 513.012024,169.448624 512.975708,132.126083 
	C512.966980,123.110748 509.003143,116.793747 502.314117,114.722046 
	C493.468781,111.982506 486.335052,114.339256 481.069611,122.248703 
	C479.302155,124.903694 478.034637,124.857346 475.498474,123.412308 
	C447.242249,107.312637 404.450500,111.363388 379.964691,139.975266 
	C361.189362,161.914368 358.232910,197.860199 369.928589,220.658203 
	C382.195221,244.569153 401.645538,258.929504 428.643494,261.669128 
	C444.055176,263.233032 459.409210,262.235931 473.092438,253.721283 
	C476.519623,251.588638 478.446106,251.407318 480.613831,255.015091 
	C487.034821,265.701752 507.028503,264.031799 511.798492,251.946136 
M40.171162,249.829529 
	C43.314941,260.854675 55.943756,265.732788 66.337791,260.038116 
	C73.061035,256.354584 74.964661,250.282181 74.977150,243.243622 
	C75.017342,220.591080 74.865875,197.937241 75.063232,175.286285 
	C75.219345,157.370163 93.254143,143.357025 109.566429,148.168091 
	C122.216393,151.899017 130.866577,163.060516 130.947006,176.317734 
	C131.084442,198.969543 130.941483,221.622940 131.036606,244.275162 
	C131.085617,255.945496 137.445847,262.024658 149.194641,261.982269 
	C159.983932,261.943359 165.961517,255.678726 165.982864,244.198547 
	C166.025925,221.046341 165.981674,197.893951 166.004028,174.741669 
	C166.024277,153.768860 156.640900,137.625793 140.097824,125.517609 
	C122.190659,112.411011 102.099121,111.865837 81.347778,116.460312 
	C75.538567,117.746498 75.065552,117.477005 75.023354,111.408218 
	C74.946915,100.415718 75.229767,89.413193 74.851883,78.432434 
	C74.481644,67.673691 67.264900,61.742180 55.775574,62.026596 
	C46.155258,62.264744 40.062252,67.880150 40.055351,77.063324 
	C40.012287,134.360504 40.070526,191.657776 40.171162,249.829529 
M640.877625,114.991272 
	C629.671021,119.489571 628.475647,133.558624 634.737915,140.968750 
	C638.745911,145.711365 644.264343,146.899078 650.053955,146.942764 
	C665.217163,147.057220 680.381714,146.981689 695.545654,147.017548 
	C697.446716,147.022034 699.347229,147.240860 702.162109,147.417847 
	C700.749146,149.268448 700.068848,150.358505 699.199951,151.268448 
	C677.242249,174.262543 655.291443,197.263412 633.275818,220.202042 
	C625.752563,228.040741 624.166199,236.907639 628.160278,246.874420 
	C631.950562,256.332489 638.969971,261.755463 649.150574,261.838013 
	C677.643005,262.069244 706.138855,262.000854 734.632446,261.859100 
	C739.913269,261.832855 744.833191,260.108093 748.187134,255.556366 
	C752.267700,250.018661 751.953064,243.832672 749.681030,237.960968 
	C747.280823,231.757919 742.038330,229.022278 735.386841,229.024078 
	C717.390015,229.028961 699.393250,229.019882 681.396484,228.981171 
	C679.505005,228.977097 677.614014,228.738876 674.844238,228.549088 
	C676.325317,226.521149 677.069153,225.255447 678.044983,224.205353 
	C686.312622,215.308777 694.571899,206.403381 702.931335,197.593262 
	C716.680237,183.103134 730.411926,168.594559 744.330322,154.268112 
	C751.654114,146.729691 752.638550,138.246292 748.870544,128.958435 
	C744.939880,119.269913 738.108704,113.838997 727.062439,113.933205 
	C701.068848,114.154884 675.072021,113.984230 649.076660,114.035583 
	C646.602905,114.040474 644.130005,114.491043 640.877625,114.991272 
M541.000000,117.500000 
	C541.001343,152.648254 540.963074,187.796570 541.020203,222.944733 
	C541.050537,241.587143 554.449524,257.969727 572.829285,261.057465 
	C579.815063,262.231049 587.085144,261.951660 594.223633,261.917206 
	C603.479736,261.872559 609.811279,255.313156 609.970154,246.110886 
	C610.135010,236.560272 604.073792,229.725082 594.748657,229.105392 
	C591.595459,228.895889 588.418518,229.070679 585.257507,228.944809 
	C578.896423,228.691498 576.208130,226.059586 576.069214,219.645218 
	C575.917664,212.651993 576.002380,205.653458 576.002136,198.657227 
	C576.001465,183.498550 576.092651,168.339203 575.969116,153.181580 
	C575.932434,148.680984 577.759399,146.784775 582.227844,146.980698 
	C586.051208,147.148331 589.889832,147.048248 593.719727,146.971161 
	C603.135681,146.781616 609.846558,140.153198 609.971313,130.984772 
	C610.103638,121.256599 603.838196,114.508194 594.124084,114.073601 
	C590.299683,113.902504 586.462158,114.049347 582.631897,113.979111 
	C576.762268,113.871475 576.076233,113.209091 576.024353,107.224815 
	C575.940613,97.564087 576.248474,87.889938 575.840698,78.244720 
	C575.385132,67.470131 568.219727,61.676205 556.655518,62.029243 
	C547.065491,62.322014 541.088989,68.738953 541.026794,79.019798 
	C540.951294,91.512794 541.003235,104.006561 541.000000,117.500000 
M928.574890,237.258789 
	C923.119141,247.463837 925.599182,258.807800 934.588684,262.545746 
	C937.797791,263.880127 941.695007,263.902374 945.281311,263.921265 
	C954.867249,263.971771 960.753052,259.188263 961.837708,250.895599 
	C963.237671,240.192261 959.130371,233.317261 949.381836,230.777054 
	C941.554749,228.737534 934.601318,230.510376 928.574890,237.258789 
z"/>
<path fill="#212221" opacity="1.000000" stroke="none" 
	d="
M864.582397,205.239410 
	C865.129211,194.551819 865.789917,184.260101 865.945801,173.960709 
	C866.165222,159.468689 865.935791,144.970459 866.040955,130.475906 
	C866.113281,120.509338 872.707336,114.188538 882.888733,114.029655 
	C893.824097,113.859016 900.835205,119.912575 900.905945,130.317719 
	C901.088257,157.141083 900.991394,183.966370 900.998718,210.790878 
	C901.003723,228.951645 901.273254,247.118088 900.899841,265.271210 
	C900.639343,277.930420 899.669312,290.699646 893.370850,302.098328 
	C882.904053,321.040802 866.221985,331.841248 845.223450,334.653839 
	C826.072998,337.218964 807.775696,332.977936 793.040710,319.718323 
	C786.894714,314.187683 781.884827,306.980957 777.756165,299.739410 
	C773.688721,292.605316 777.581116,282.605530 784.350891,278.974396 
	C792.279358,274.721863 803.745056,276.744659 808.236572,283.527832 
	C812.249573,289.588348 816.814087,294.691010 823.385681,298.305054 
	C840.330322,307.623718 860.595337,298.786438 864.755249,277.005951 
	C865.746094,271.818390 865.825134,266.418945 865.925354,261.109436 
	C866.030334,255.546692 865.153809,255.304260 859.684082,256.556702 
	C843.333069,260.300690 826.839233,261.420929 811.247986,254.092316 
	C787.835022,243.087143 774.814087,224.384750 774.129150,198.298584 
	C773.539062,175.821594 773.954529,153.316269 774.059204,130.824081 
	C774.095886,122.939888 778.818237,116.735054 785.848450,114.664230 
	C793.651733,112.365685 802.405518,114.784470 806.321960,121.145195 
	C808.035706,123.928360 808.841492,127.688812 808.877808,131.018387 
	C809.106750,152.009125 808.967712,173.003571 809.028259,193.996582 
	C809.051453,202.042450 811.050415,209.501175 816.384766,215.772202 
	C829.878540,231.635544 852.965881,228.821457 862.390991,210.172119 
	C863.141296,208.687485 863.780212,207.146591 864.582397,205.239410 
z"/>
<path fill="#212221" opacity="1.000000" stroke="none" 
	d="
M208.768707,237.206604 
	C196.848679,223.433197 190.662308,207.542282 190.355072,189.897598 
	C190.052673,172.529312 194.856186,156.421539 205.975357,142.494492 
	C222.547012,121.738052 244.286850,112.430595 270.397888,114.146606 
	C299.692596,116.071854 321.304077,130.356934 333.937592,157.187027 
	C338.111359,166.050934 334.944580,174.706543 325.915924,178.934677 
	C306.921448,187.829803 287.730408,196.305054 268.623016,204.959259 
	C260.131500,208.805298 251.634933,212.640640 243.164963,216.533722 
	C239.150604,218.378860 239.054642,219.697235 242.597839,222.343185 
	C256.812988,232.958740 278.561920,231.644623 291.689728,218.467224 
	C296.590393,213.548035 300.157806,207.087265 303.490051,200.877045 
	C307.023468,194.291885 311.733612,190.927017 319.314392,190.922501 
	C326.825409,190.918030 333.001740,192.988815 335.898926,200.332947 
	C338.889801,207.914551 336.403473,215.143585 332.887085,221.909882 
	C309.658813,266.606842 254.399750,271.968994 222.556580,249.229980 
	C217.711929,245.770462 213.510086,241.410782 208.768707,237.206604 
M230.853622,168.462250 
	C229.464218,172.192841 227.916962,175.875671 226.766235,179.678482 
	C226.330627,181.118103 226.809814,182.834534 226.872009,184.424805 
	C228.589691,184.265533 230.501770,184.543915 231.995483,183.880432 
	C250.402557,175.704407 268.755676,167.406662 287.104126,159.099258 
	C290.730927,157.457199 290.993683,155.644897 287.618896,153.557663 
	C280.064453,148.885452 271.786469,146.708771 262.864777,147.558228 
	C248.864166,148.891220 238.810822,156.459900 230.853622,168.462250 
z"/>
<path fill="#212221" opacity="1.000000" stroke="none" 
	d="
M511.655884,252.313751 
	C507.028503,264.031799 487.034821,265.701752 480.613831,255.015091 
	C478.446106,251.407318 476.519623,251.588638 473.092438,253.721283 
	C459.409210,262.235931 444.055176,263.233032 428.643494,261.669128 
	C401.645538,258.929504 382.195221,244.569153 369.928589,220.658203 
	C358.232910,197.860199 361.189362,161.914368 379.964691,139.975266 
	C404.450500,111.363388 447.242249,107.312637 475.498474,123.412308 
	C478.034637,124.857346 479.302155,124.903694 481.069611,122.248703 
	C486.335052,114.339256 493.468781,111.982506 502.314117,114.722046 
	C509.003143,116.793747 512.966980,123.110748 512.975708,132.126083 
	C513.012024,169.448624 513.014038,206.771240 512.938354,244.093658 
	C512.933105,246.711914 512.195557,249.328674 511.655884,252.313751 
M425.126129,149.465317 
	C408.223175,155.693726 397.896515,170.785385 398.004944,189.101059 
	C398.135681,211.186234 416.630096,229.465073 438.748444,228.922562 
	C458.047943,228.449173 478.193848,212.182297 477.732361,187.540985 
	C477.212738,159.795700 449.622559,140.499725 425.126129,149.465317 
z"/>
<path fill="#212221" opacity="1.000000" stroke="none" 
	d="
M40.133179,249.392273 
	C40.070526,191.657776 40.012287,134.360504 40.055351,77.063324 
	C40.062252,67.880150 46.155258,62.264744 55.775574,62.026596 
	C67.264900,61.742180 74.481644,67.673691 74.851883,78.432434 
	C75.229767,89.413193 74.946915,100.415718 75.023354,111.408218 
	C75.065552,117.477005 75.538567,117.746498 81.347778,116.460312 
	C102.099121,111.865837 122.190659,112.411011 140.097824,125.517609 
	C156.640900,137.625793 166.024277,153.768860 166.004028,174.741669 
	C165.981674,197.893951 166.025925,221.046341 165.982864,244.198547 
	C165.961517,255.678726 159.983932,261.943359 149.194641,261.982269 
	C137.445847,262.024658 131.085617,255.945496 131.036606,244.275162 
	C130.941483,221.622940 131.084442,198.969543 130.947006,176.317734 
	C130.866577,163.060516 122.216393,151.899017 109.566429,148.168091 
	C93.254143,143.357025 75.219345,157.370163 75.063232,175.286285 
	C74.865875,197.937241 75.017342,220.591080 74.977150,243.243622 
	C74.964661,250.282181 73.061035,256.354584 66.337791,260.038116 
	C55.943756,265.732788 43.314941,260.854675 40.133179,249.392273 
z"/>
<path fill="#212221" opacity="1.000000" stroke="none" 
	d="
M641.267212,114.862984 
	C644.130005,114.491043 646.602905,114.040474 649.076660,114.035583 
	C675.072021,113.984230 701.068848,114.154884 727.062439,113.933205 
	C738.108704,113.838997 744.939880,119.269913 748.870544,128.958435 
	C752.638550,138.246292 751.654114,146.729691 744.330322,154.268112 
	C730.411926,168.594559 716.680237,183.103134 702.931335,197.593262 
	C694.571899,206.403381 686.312622,215.308777 678.044983,224.205353 
	C677.069153,225.255447 676.325317,226.521149 674.844238,228.549088 
	C677.614014,228.738876 679.505005,228.977097 681.396484,228.981171 
	C699.393250,229.019882 717.390015,229.028961 735.386841,229.024078 
	C742.038330,229.022278 747.280823,231.757919 749.681030,237.960968 
	C751.953064,243.832672 752.267700,250.018661 748.187134,255.556366 
	C744.833191,260.108093 739.913269,261.832855 734.632446,261.859100 
	C706.138855,262.000854 677.643005,262.069244 649.150574,261.838013 
	C638.969971,261.755463 631.950562,256.332489 628.160278,246.874420 
	C624.166199,236.907639 625.752563,228.040741 633.275818,220.202042 
	C655.291443,197.263412 677.242249,174.262543 699.199951,151.268448 
	C700.068848,150.358505 700.749146,149.268448 702.162109,147.417847 
	C699.347229,147.240860 697.446716,147.022034 695.545654,147.017548 
	C680.381714,146.981689 665.217163,147.057220 650.053955,146.942764 
	C644.264343,146.899078 638.745911,145.711365 634.737915,140.968750 
	C628.475647,133.558624 629.671021,119.489571 641.267212,114.862984 
z"/>
<path fill="#212221" opacity="1.000000" stroke="none" 
	d="
M541.000000,117.000000 
	C541.003235,104.006561 540.951294,91.512794 541.026794,79.019798 
	C541.088989,68.738953 547.065491,62.322014 556.655518,62.029243 
	C568.219727,61.676205 575.385132,67.470131 575.840698,78.244720 
	C576.248474,87.889938 575.940613,97.564087 576.024353,107.224815 
	C576.076233,113.209091 576.762268,113.871475 582.631897,113.979111 
	C586.462158,114.049347 590.299683,113.902504 594.124084,114.073601 
	C603.838196,114.508194 610.103638,121.256599 609.971313,130.984772 
	C609.846558,140.153198 603.135681,146.781616 593.719727,146.971161 
	C589.889832,147.048248 586.051208,147.148331 582.227844,146.980698 
	C577.759399,146.784775 575.932434,148.680984 575.969116,153.181580 
	C576.092651,168.339203 576.001465,183.498550 576.002136,198.657227 
	C576.002380,205.653458 575.917664,212.651993 576.069214,219.645218 
	C576.208130,226.059586 578.896423,228.691498 585.257507,228.944809 
	C588.418518,229.070679 591.595459,228.895889 594.748657,229.105392 
	C604.073792,229.725082 610.135010,236.560272 609.970154,246.110886 
	C609.811279,255.313156 603.479736,261.872559 594.223633,261.917206 
	C587.085144,261.951660 579.815063,262.231049 572.829285,261.057465 
	C554.449524,257.969727 541.050537,241.587143 541.020203,222.944733 
	C540.963074,187.796570 541.001343,152.648254 541.000000,117.000000 
z"/>
<path fill="#212221" opacity="1.000000" stroke="none" 
	d="
M928.802979,236.962158 
	C934.601318,230.510376 941.554749,228.737534 949.381836,230.777054 
	C959.130371,233.317261 963.237671,240.192261 961.837708,250.895599 
	C960.753052,259.188263 954.867249,263.971771 945.281311,263.921265 
	C941.695007,263.902374 937.797791,263.880127 934.588684,262.545746 
	C925.599182,258.807800 923.119141,247.463837 928.802979,236.962158 
z"/>
<path fill="#000000" opacity="1.000000" stroke="none" 
	d="
M231.027924,168.139648 
	C238.810822,156.459900 248.864166,148.891220 262.864777,147.558228 
	C271.786469,146.708771 280.064453,148.885452 287.618896,153.557663 
	C290.993683,155.644897 290.730927,157.457199 287.104126,159.099258 
	C268.755676,167.406662 250.402557,175.704407 231.995483,183.880432 
	C230.501770,184.543915 228.589691,184.265533 226.872009,184.424805 
	C226.809814,182.834534 226.330627,181.118103 226.766235,179.678482 
	C227.916962,175.875671 229.464218,172.192841 231.027924,168.139648 
z"/>
<path fill="#000000" opacity="1.000000" stroke="none" 
	d="
M425.502991,149.333588 
	C449.622559,140.499725 477.212738,159.795700 477.732361,187.540985 
	C478.193848,212.182297 458.047943,228.449173 438.748444,228.922562 
	C416.630096,229.465073 398.135681,211.186234 398.004944,189.101059 
	C397.896515,170.785385 408.223175,155.693726 425.502991,149.333588 
z"/>
</svg>