<svg xmlns="http://www.w3.org/2000/svg" width="512" height="512" viewBox="0 0 512 512" version="1.1">
	<path d="M 0 255.982 L 0 511.965 102.482 511.991 L 204.964 512.016 205.232 324.258 L 205.500 136.500 208.110 131 C 213.635 119.357, 222.946 112.113, 235.108 109.995 C 250.806 107.261, 266.197 115.155, 273.574 129.722 L 276.500 135.500 276.790 190.790 L 277.080 246.079 280.019 243.986 C 293.877 234.119, 323.731 228.066, 352.500 229.291 C 373.769 230.197, 390.991 234.581, 408.771 243.615 C 422.678 250.681, 433.392 258.551, 445.424 270.540 C 465.918 290.961, 478.366 313.619, 484.680 342 C 486.145 348.582, 486.394 359.449, 486.718 430.780 L 487.088 512.059 499.794 511.780 L 512.500 511.500 512.752 255.750 L 513.004 0 256.502 0 L 0 0 0 255.982 M 0.492 256.500 C 0.492 397.300, 0.608 454.751, 0.750 384.170 C 0.892 313.588, 0.892 198.388, 0.750 128.170 C 0.608 57.951, 0.492 115.700, 0.492 256.500 M 333 301.956 C 326.781 303.129, 316.177 307.120, 310.608 310.384 C 298.153 317.683, 285.135 333.955, 280.284 348.285 L 277.504 356.500 277.212 434.250 L 276.919 512 346.517 512 L 416.114 512 415.737 435.750 C 415.319 351.065, 415.527 353.820, 408.462 339.500 C 400.092 322.537, 384.302 309.155, 366 303.516 C 359.704 301.575, 339.964 300.643, 333 301.956" stroke="none" fill="black" fill-rule="evenodd"/>
</svg>
