<?xml version="1.0" encoding="UTF-8" standalone="no"?>
<!DOCTYPE svg PUBLIC "-//W3C//DTD SVG 1.1//EN" "http://www.w3.org/Graphics/SVG/1.1/DTD/svg11.dtd">
<!-- Created with Vectornator (http://vectornator.io/) -->
<svg height="100%" stroke-miterlimit="10" style="fill-rule:nonzero;clip-rule:evenodd;stroke-linecap:round;stroke-linejoin:round;" version="1.1" viewBox="0 0 512 512" width="100%" xml:space="preserve" xmlns="http://www.w3.org/2000/svg" xmlns:vectornator="http://vectornator.io" xmlns:xlink="http://www.w3.org/1999/xlink">
<defs/>
<clipPath id="ArtboardFrame">
<rect height="512" width="512" x="0" y="0"/>
</clipPath>
<g clip-path="url(#ArtboardFrame)" id="Untitled" vectornator:layerName="Untitled">
<path d="M0 255.982L0 511.965M0.492 256.5C0.492 388.966 0.594674 447.658 0.725076 395.367M333 301.956C326.781 303.129 316.177 307.12 310.608 310.384C298.153 317.683 285.135 333.955 280.284 348.285L277.504 356.5L277.212 434.25L276.919 512L346.517 512L416.114 512L415.737 435.75C415.319 351.065 415.527 353.82 408.462 339.5C400.092 322.537 384.302 309.155 366 303.516C359.704 301.575 339.964 300.643 333 301.956M0 0L0 255.982M52.801 0L0 0M108.645 0L52.801 0M146.75 0L108.645 0M180.914 0L146.75 0M226.246 0L180.914 0M256.502 0L226.246 0M284.061 0L256.502 0M318.881 0L284.061 0M362.243 0L318.881 0M422.029 0L362.243 0M476.559 0L422.029 0M513.004 0L476.559 0M512.936 68.6922L513.004 0M512.904 101.544L512.936 68.6922M512.868 138.334L512.904 101.544M512.829 177.763L512.868 138.334M512.791 215.856L512.829 177.763M512.752 255.75L512.791 215.856M512.636 373.534L512.752 255.75M512.593 417.554L512.636 373.534M512.56 450.404L512.593 417.554M512.5 511.5L512.56 450.404M0.725076 395.367C0.733281 392.077 0.741595 388.348 0.75 384.17C0.772555 372.959 0.791527 360.623 0.806916 347.519M0.806916 347.519C0.888418 278.127 0.869445 187.235 0.75 128.17C0.608 57.951 0.492 115.7 0.492 256.5M0 511.965L102.482 511.991L204.964 512.016L205.232 324.258L205.5 136.5L208.11 131C213.635 119.357 222.946 112.113 235.108 109.995C250.806 107.261 266.197 115.155 273.574 129.722L276.5 135.5L276.79 190.79L277.08 246.079L280.019 243.986C293.877 234.119 323.731 228.066 352.5 229.291C373.769 230.197 390.991 234.581 408.771 243.615C422.678 250.681 433.392 258.551 445.424 270.54C465.918 290.961 478.366 313.619 484.68 342C486.145 348.582 486.394 359.449 486.718 430.78L487.088 512.059L499.794 511.78L512.5 511.5" fill="#000000" fill-rule="evenodd" opacity="1" stroke="none"/>
</g>
</svg>
